# xmcd
#
# Track frame offsets: 
#        150
#        11625
#        25947
#        39262
#        55615
#        68662
#        81200
#        96990
#        111215
#        121502
#        131290
#        142240
#        152327
#
# Disc length: 2181 seconds
#
# Revision: 0
# Processed by: cddbd v1.5.2PL0 Copyright (c) Steve Scherf et al.
# Submitted via: ExactAudioCopyFreeDBPlugin 1.0
#
DISCID=9b08830d
DTITLE=Jinx Jones - License To Twang
DYEAR=2001
DGENRE=Country
TTITLE0=License To Twang
TTITLE1=You Can't Kill Me 'Cause I'm Already Dead
TTITLE2=Big Daddy Bop
TTITLE3=I Need A Good Girl Bad
TTITLE4=Break The Devil's Heart
TTITLE5=Honky Tonk Playgirl
TTITLE6=Bumble Boogie
TTITLE7=Lovin' On Borrowed Time
TTITLE8=Tailor Made Woman
TTITLE9=Love Ain't Free
TTITLE10=Bop-A-Lena
TTITLE11=License To Twang, Part 2
TTITLE12=Lonely Side Of Town
EXTD=
EXTT0=
EXTT1=
EXTT2=
EXTT3=
EXTT4=
EXTT5=
EXTT6=
EXTT7=
EXTT8=
EXTT9=
EXTT10=
EXTT11=
EXTT12=
PLAYORDER=
